<svg id="Слой_1" data-name="Слой 1" xmlns="http://www.w3.org/2000/svg" viewBox="0 0 432.28 135.43"><defs><style>.cls-1{fill:#fff;}</style></defs><title>МДО ХУМО</title><path class="cls-1" d="M69.75.64a67.71,67.71,0,1,0,67.72,67.71A67.79,67.79,0,0,0,69.75.64m7.87,94.14a41.93,41.93,0,0,1-27.42,15.6s7.88-3,15.36-15.33C72.72,82,73.33,72.14,80.07,63.67c11.39-14.32,26.07-10.93,26.07-10.93-1.69-5.36-6.67-8.66-13.74-8.35-2.3-7.45-12.25-10.21-19.34-6.52-5.27,2.73-10.93,6.69-17.25,6.56a16.63,16.63,0,0,1-2.11-.09A18.36,18.36,0,0,1,43.34,39c-.44,6.15,3.52,11.91,8.2,13.83,8,3.27,13.65-.7,13.65-.7a68.36,68.36,0,0,1-26,32.64c-13.35-6.61-22.15-18.65-24-35.24A57.52,57.52,0,0,1,127.08,68.52c0,.64,0,1.27,0,1.91A57,57,0,0,1,77.62,94.78" transform="translate(-2.04 -0.64)"/><path class="cls-1" d="M271,74q0,7.83-4,12t-10.69,4.11q-6,0-9.28-3.56t-3.27-10.69V49.91H231.27v27.5q0,11.86,6.18,17.78t16.91,5.92a24.76,24.76,0,0,0,9.34-1.75A20,20,0,0,0,271,94.28V98q0,8.23-3.87,12.2t-12.09,4a22.05,22.05,0,0,1-8.64-1.71,25.25,25.25,0,0,1-8.33-4.62l-5.63,9.44a29.28,29.28,0,0,0,11,5.68,38.46,38.46,0,0,0,12.3,2q27.81,0,27.81-28.31V49.91H271Z" transform="translate(-2.04 -0.64)"/><polygon class="cls-1" points="350.57 49.27 330.6 82.8 311.52 49.27 298.37 49.27 298.37 102.88 309.81 102.88 309.81 67.24 327.58 97.26 333.01 97.26 351.08 67.34 351.08 102.88 362.42 102.88 362.32 49.27 350.57 49.27"/><path class="cls-1" d="M430.66,62.56a25.76,25.76,0,0,0-10.19-9.74,32.58,32.58,0,0,0-29.42,0,25.69,25.69,0,0,0-10.19,9.74,27.4,27.4,0,0,0-3.66,14.15,27.67,27.67,0,0,0,3.66,14.21,25.61,25.61,0,0,0,10.19,9.79,32.58,32.58,0,0,0,29.42,0,25.68,25.68,0,0,0,10.19-9.79,27.67,27.67,0,0,0,3.66-14.21,27.4,27.4,0,0,0-3.66-14.15m-13.51,26.3a16.42,16.42,0,0,1-22.84,0q-4.47-4.62-4.46-12.15t4.46-12.15a16.45,16.45,0,0,1,22.84,0q4.52,4.62,4.52,12.15t-4.52,12.15" transform="translate(-2.04 -0.64)"/><polygon class="cls-1" points="194.07 66.33 215.8 35.27 200.52 35.27 185.84 56.1 171.16 35.27 156.07 35.27 178.01 66.84 154.19 100.64 169.26 100.64 185.84 77.28 202.51 100.64 210.42 100.64 210.42 102.88 210.44 102.88 210.44 116.72 221.59 116.72 221.59 91.84 211.87 91.84 194.07 66.33"/></svg>