<svg id="Слой_1" data-name="Слой 1" xmlns="http://www.w3.org/2000/svg" viewBox="0 0 150.28 150.28"><defs><style>.cls-1{fill:#fff;}</style></defs><title>МДО ХУМО</title><path class="cls-1" d="M78,2.89A75.14,75.14,0,1,0,153.17,78,75.23,75.23,0,0,0,78,2.89m8.74,104.47a46.57,46.57,0,0,1-30.43,17.31s8.75-3.3,17-17c8-14.53,8.62-25.43,16.1-34.83C102.13,57,118.41,60.71,118.41,60.71c-1.87-5.94-7.4-9.62-15.24-9.27-2.56-8.27-13.59-11.33-21.47-7.24-5.85,3-12.12,7.43-19.13,7.29a18.56,18.56,0,0,1-2.35-.1,20.39,20.39,0,0,1-11.5-5.89c-.49,6.83,3.92,13.22,9.11,15.35C66.65,64.48,73,60.08,73,60.08A76,76,0,0,1,44.15,96.3C29.32,89,19.57,75.6,17.55,57.19a63.83,63.83,0,0,1,124.1,21c0,.71,0,1.41-.06,2.12a63.25,63.25,0,0,1-54.82,27" transform="translate(-2.89 -2.89)"/></svg>