<svg width="60" height="60" viewBox="0 0 60 60" fill="none" xmlns="http://www.w3.org/2000/svg">
<circle cx="30" cy="30" r="30" fill="white"/>
<path d="M29.9965 6C25.2499 6.0007 20.6101 7.40887 16.6637 10.0465C12.7174 12.684 9.64184 16.4326 7.82588 20.8181C6.00993 25.2035 5.53515 30.029 6.4616 34.6843C7.38804 39.3396 9.6741 43.6157 13.0307 46.9718C16.3873 50.3279 20.6637 52.6133 25.3191 53.5391C29.9746 54.4649 34.8 53.9894 39.1852 52.1728C43.5704 50.3562 47.3185 47.28 49.9555 43.3333C52.5925 39.3866 54 34.7466 54 30C53.9925 23.6365 51.461 17.5358 46.961 13.0365C42.461 8.53713 36.36 6.00657 29.9965 6ZM32.786 39.3682C30.3896 42.4063 26.9029 44.39 23.0669 44.8976C23.0669 44.8976 25.86 43.8343 28.5113 39.4639C31.0492 34.8383 31.2654 31.3434 33.6544 28.3412C37.6916 23.2654 42.895 24.467 42.895 24.467C42.296 22.5671 40.5308 21.3974 38.0248 21.5073C37.2096 18.8666 33.6828 17.8883 31.1697 19.1963C29.3017 20.1639 27.2955 21.5676 25.0554 21.5215C24.8057 21.5267 24.5559 21.5161 24.3075 21.4896C22.9104 21.2742 21.6213 20.6098 20.6354 19.5968C20.4794 21.7767 21.883 23.8183 23.5419 24.4989C26.3775 25.658 28.3802 24.2508 28.3802 24.2508C26.5892 28.9735 23.3671 33.0185 19.1644 35.8201C14.4324 33.4772 11.3133 29.2096 10.6575 23.3292C12.2335 18.7646 15.3786 14.9076 19.5326 12.4451C23.6866 9.98257 28.5798 9.07447 33.3408 9.8825C38.1017 10.6905 42.4213 13.1622 45.5302 16.8574C48.6391 20.5525 50.3355 25.2313 50.3172 30.0603C50.3172 30.2871 50.3172 30.5104 50.3172 30.7373C48.3635 33.5412 45.7305 35.8037 42.6645 37.3131C39.5984 38.8226 36.1996 39.5297 32.786 39.3682Z" fill="#FF6C2F"/>
</svg>
